<svg width="102" height="40" viewBox="0 0 102 40" fill="none" xmlns="http://www.w3.org/2000/svg">
<path d="M1.46973 11V1.60742H4.00586V8.94238H10.8623V11H1.46973ZM23.8637 10.5352C23.0935 10.7904 22.3233 10.9727 21.5532 11.082C20.7875 11.196 20.0037 11.2529 19.2016 11.2529C18.1762 11.2529 17.2625 11.1436 16.4604 10.9248C15.6629 10.7015 14.9907 10.3802 14.4438 9.96094C13.8969 9.54167 13.4799 9.02897 13.1928 8.42285C12.9057 7.81673 12.7621 7.13086 12.7621 6.36523C12.7621 5.6543 12.9057 4.99577 13.1928 4.38965C13.4845 3.77897 13.8946 3.25033 14.4233 2.80371C14.9565 2.35254 15.5991 2.00163 16.351 1.75098C17.103 1.49577 17.9415 1.36816 18.8666 1.36816C19.7189 1.36816 20.4982 1.48438 21.2045 1.7168C21.9155 1.94466 22.5239 2.28418 23.0297 2.73535C23.5401 3.18652 23.9343 3.74251 24.2123 4.40332C24.4949 5.06413 24.6362 5.8252 24.6362 6.68652V7.31543H15.3803C15.4623 7.61165 15.5968 7.88281 15.7836 8.12891C15.975 8.375 16.2325 8.58464 16.5561 8.75781C16.8797 8.93099 17.2761 9.06543 17.7455 9.16113C18.2195 9.25684 18.7846 9.30469 19.4409 9.30469C19.9057 9.30469 20.3614 9.27734 20.808 9.22266C21.2547 9.16341 21.6717 9.08822 22.059 8.99707C22.4464 8.90137 22.795 8.79655 23.1049 8.68262C23.4194 8.56868 23.6723 8.45475 23.8637 8.34082V10.5352ZM22.1137 5.45605C22.0909 5.22363 22.0203 4.98438 21.9018 4.73828C21.7879 4.48763 21.6056 4.26204 21.3549 4.06152C21.1043 3.861 20.7761 3.69694 20.3705 3.56934C19.9649 3.43717 19.4591 3.37109 18.853 3.37109C18.2833 3.37109 17.7911 3.44173 17.3764 3.58301C16.9617 3.72428 16.6131 3.89974 16.3305 4.10938C16.0525 4.31901 15.836 4.5446 15.6811 4.78613C15.5261 5.02767 15.4259 5.25098 15.3803 5.45605H22.1137ZM35.4638 11V10.0771C35.1402 10.2549 34.7916 10.4121 34.4179 10.5488C34.0487 10.6855 33.6636 10.8018 33.2626 10.8975C32.8615 10.9932 32.4468 11.0638 32.0184 11.1094C31.5946 11.1595 31.1662 11.1846 30.7333 11.1846C30.2274 11.1846 29.7375 11.1367 29.2636 11.041C28.7942 10.9453 28.3772 10.7904 28.0126 10.5762C27.648 10.362 27.3541 10.0817 27.1307 9.73535C26.912 9.389 26.8026 8.96517 26.8026 8.46387C26.8026 7.8304 26.9758 7.30404 27.3221 6.88477C27.6685 6.46094 28.1971 6.11458 28.9081 5.8457C29.619 5.57682 30.5168 5.36947 31.6014 5.22363C32.6906 5.0778 33.9781 4.96387 35.4638 4.88184V4.68359C35.4638 4.52865 35.4227 4.37598 35.3407 4.22559C35.2587 4.07064 35.1083 3.9362 34.8895 3.82227C34.6753 3.70378 34.3791 3.60807 34.0009 3.53516C33.6272 3.46224 33.1486 3.42578 32.5653 3.42578C32.105 3.42578 31.6493 3.45085 31.1981 3.50098C30.7515 3.54655 30.3186 3.61035 29.8993 3.69238C29.4846 3.77441 29.0904 3.87012 28.7167 3.97949C28.343 4.08887 28.0035 4.2028 27.6981 4.32129V2.06543C28.0171 1.9834 28.3749 1.90365 28.7714 1.82617C29.1679 1.7487 29.5803 1.68262 30.0087 1.62793C30.4371 1.56868 30.87 1.52311 31.3075 1.49121C31.745 1.45475 32.1643 1.43652 32.5653 1.43652C33.3537 1.43652 34.0806 1.5026 34.746 1.63477C35.4113 1.76237 35.9833 1.96289 36.4618 2.23633C36.9449 2.50977 37.3208 2.85612 37.5897 3.27539C37.8632 3.69466 37.9999 4.19368 37.9999 4.77246V11H35.4638ZM35.4638 6.71387C34.4885 6.75033 33.6591 6.80273 32.9755 6.87109C32.2964 6.93945 31.7313 7.01921 31.2802 7.11035C30.829 7.2015 30.4735 7.29948 30.2138 7.4043C29.9585 7.50911 29.7671 7.61621 29.6395 7.72559C29.5119 7.83496 29.4322 7.94434 29.4003 8.05371C29.3729 8.16309 29.3593 8.26335 29.3593 8.35449C29.3593 8.46387 29.3889 8.57096 29.4481 8.67578C29.5074 8.77604 29.6099 8.86491 29.7557 8.94238C29.9061 9.01986 30.1044 9.08138 30.3505 9.12695C30.5966 9.17253 30.9065 9.19531 31.2802 9.19531C31.6949 9.19531 32.1005 9.16341 32.497 9.09961C32.8934 9.03581 33.2694 8.94922 33.6249 8.83984C33.9804 8.72591 34.313 8.59375 34.6229 8.44336C34.9374 8.28841 35.2177 8.12435 35.4638 7.95117V6.71387ZM50.0989 3.7334C50.0306 3.71061 49.9303 3.68099 49.7982 3.64453C49.6706 3.60352 49.5202 3.56478 49.347 3.52832C49.1738 3.4873 48.9824 3.45312 48.7728 3.42578C48.5677 3.39844 48.3558 3.38477 48.137 3.38477C47.6813 3.38477 47.2552 3.44173 46.8587 3.55566C46.4668 3.66504 46.0999 3.81315 45.7581 4C45.4163 4.18229 45.0973 4.39193 44.8011 4.62891C44.5094 4.86133 44.2405 5.10059 43.9945 5.34668V11H41.4583V1.60742H43.9945V3.13184C44.2998 2.90397 44.612 2.68522 44.931 2.47559C45.2545 2.26139 45.5895 2.07227 45.9359 1.9082C46.2868 1.74414 46.6559 1.61426 47.0433 1.51855C47.4307 1.41829 47.8408 1.36816 48.2738 1.36816C48.4378 1.36816 48.6042 1.37728 48.7728 1.39551C48.946 1.40918 49.1123 1.42741 49.2718 1.4502C49.4359 1.47298 49.5885 1.49805 49.7298 1.52539C49.8711 1.55273 49.9941 1.58008 50.0989 1.60742V3.7334ZM61.2205 11V5.73633C61.2205 5.38542 61.1908 5.06868 61.1316 4.78613C61.0724 4.49902 60.9607 4.25521 60.7966 4.05469C60.6371 3.84961 60.4116 3.69238 60.1199 3.58301C59.8328 3.46908 59.4614 3.41211 59.0056 3.41211C58.6593 3.41211 58.2947 3.45996 57.9119 3.55566C57.5336 3.64681 57.1576 3.76986 56.7839 3.9248C56.4102 4.07975 56.0525 4.25977 55.7107 4.46484C55.3735 4.66992 55.0727 4.88411 54.8084 5.10742V11H52.2722V1.60742H54.8084V2.89258C55.1274 2.71029 55.4669 2.53027 55.8269 2.35254C56.1869 2.17025 56.5698 2.00618 56.9754 1.86035C57.381 1.71452 57.8116 1.59603 58.2673 1.50488C58.7231 1.41374 59.2039 1.36816 59.7097 1.36816C60.3432 1.36816 60.9083 1.44564 61.405 1.60059C61.9063 1.75098 62.3302 1.96745 62.6765 2.25C63.0229 2.52799 63.2872 2.86751 63.4695 3.26855C63.6563 3.66504 63.7498 4.10938 63.7498 4.60156V11H61.2205Z" fill="white"/>
<path d="M5.918 35.176C5.00867 35.176 4.16533 34.9927 3.388 34.626C2.61067 34.2593 1.98733 33.7533 1.518 33.108C1.04867 32.448 0.814 31.6853 0.814 30.82C0.814 30.0427 1.04867 29.346 1.518 28.73C1.98733 28.0993 2.64733 27.6227 3.498 27.3C3.17533 27.1973 2.838 26.9993 2.486 26.706C2.14867 26.398 1.86267 26.0313 1.628 25.606C1.408 25.1807 1.298 24.726 1.298 24.242C1.298 23.1127 1.70867 22.1667 2.53 21.404C3.35133 20.6413 4.554 20.26 6.138 20.26C7.13533 20.26 7.95667 20.414 8.602 20.722C9.24733 21.0153 9.73867 21.3967 10.076 21.866C10.428 22.3207 10.6553 22.7973 10.758 23.296H9.02C8.91733 22.944 8.61667 22.5993 8.118 22.262C7.634 21.9247 6.95933 21.756 6.094 21.756C5.00867 21.756 4.20933 22.0053 3.696 22.504C3.19733 22.988 2.948 23.5747 2.948 24.264C2.948 25.0853 3.234 25.694 3.806 26.09C4.378 26.486 5.04533 26.684 5.808 26.684H9.35V25.716H10.89V26.684H12.32V28.158H10.89V30.952C10.89 32.1987 10.45 33.218 9.57 34.01C8.69 34.7873 7.47267 35.176 5.918 35.176ZM5.918 33.702C7.07667 33.702 7.93467 33.438 8.492 32.91C9.064 32.3673 9.35 31.7587 9.35 31.084V28.158H5.61C4.994 28.158 4.444 28.2827 3.96 28.532C3.49067 28.7813 3.124 29.1113 2.86 29.522C2.596 29.918 2.464 30.3653 2.464 30.864C2.464 31.3627 2.60333 31.832 2.882 32.272C3.17533 32.6973 3.57867 33.042 4.092 33.306C4.62 33.57 5.22867 33.702 5.918 33.702Z" fill="white"/>
<path d="M34.5732 33.9902C34.0576 34.2051 33.5384 34.3984 33.0156 34.5703C32.4928 34.7422 31.9521 34.889 31.3936 35.0107C30.835 35.1396 30.2441 35.2363 29.6211 35.3008C29.0052 35.3652 28.3428 35.3975 27.6338 35.3975C26.1299 35.3975 24.7441 35.2363 23.4766 34.9141C22.2161 34.5918 21.1276 34.1084 20.2109 33.4639C19.3014 32.8122 18.5924 32.0029 18.084 31.0361C17.5755 30.0622 17.3213 28.9271 17.3213 27.6309C17.3213 26.3346 17.5755 25.2031 18.084 24.2363C18.5924 23.2624 19.3014 22.4531 20.2109 21.8086C21.1276 21.1569 22.2161 20.6699 23.4766 20.3477C24.7441 20.0254 26.1299 19.8643 27.6338 19.8643C28.3428 19.8643 29.0052 19.8965 29.6211 19.9609C30.2441 20.0254 30.835 20.1221 31.3936 20.251C31.9521 20.3727 32.4928 20.5195 33.0156 20.6914C33.5384 20.8633 34.0576 21.0566 34.5732 21.2715V24.8594C34.165 24.6374 33.7354 24.4189 33.2842 24.2041C32.833 23.9821 32.3353 23.7852 31.791 23.6133C31.2467 23.4342 30.6488 23.291 29.9971 23.1836C29.3454 23.069 28.6113 23.0117 27.7949 23.0117C26.5417 23.0117 25.4997 23.1406 24.6689 23.3984C23.8454 23.6562 23.1865 24 22.6924 24.4297C22.1982 24.8594 21.8509 25.3535 21.6504 25.9121C21.4499 26.4635 21.3496 27.0365 21.3496 27.6309C21.3496 28.0247 21.3926 28.415 21.4785 28.8018C21.5645 29.1813 21.7077 29.543 21.9082 29.8867C22.1087 30.2233 22.3701 30.5348 22.6924 30.8213C23.0146 31.1077 23.4157 31.3548 23.8955 31.5625C24.3753 31.7702 24.9339 31.9349 25.5713 32.0566C26.2158 32.1712 26.957 32.2285 27.7949 32.2285C28.6113 32.2285 29.3454 32.1784 29.9971 32.0781C30.6488 31.9707 31.2467 31.8311 31.791 31.6592C32.3353 31.4873 32.833 31.2939 33.2842 31.0791C33.7354 30.8571 34.165 30.6315 34.5732 30.4023V33.9902ZM57.8296 27.6309C57.8296 28.8984 57.5969 30.0192 57.1314 30.9932C56.6659 31.96 55.9999 32.7692 55.1334 33.4209C54.2668 34.0726 53.2141 34.5667 51.9752 34.9033C50.7434 35.2327 49.3576 35.3975 47.8179 35.3975C46.2782 35.3975 44.8853 35.2327 43.6392 34.9033C42.4003 34.5667 41.344 34.0726 40.4703 33.4209C39.5966 32.7692 38.9234 31.96 38.4507 30.9932C37.9781 30.0192 37.7418 28.8984 37.7418 27.6309C37.7418 26.3633 37.9781 25.2461 38.4507 24.2793C38.9234 23.3053 39.5966 22.4925 40.4703 21.8408C41.344 21.1891 42.4003 20.6986 43.6392 20.3691C44.8853 20.0326 46.2782 19.8643 47.8179 19.8643C49.3576 19.8643 50.7434 20.0326 51.9752 20.3691C53.2141 20.6986 54.2668 21.1891 55.1334 21.8408C55.9999 22.4925 56.6659 23.3053 57.1314 24.2793C57.5969 25.2461 57.8296 26.3633 57.8296 27.6309ZM53.8013 27.6309C53.8013 27.0794 53.7118 26.5316 53.5328 25.9873C53.3609 25.4359 53.0494 24.9417 52.5982 24.5049C52.1542 24.068 51.5455 23.7135 50.772 23.4414C49.9986 23.1693 49.0139 23.0332 47.8179 23.0332C47.0158 23.0332 46.3104 23.0977 45.7017 23.2266C45.093 23.3483 44.5666 23.5202 44.1226 23.7422C43.6786 23.9642 43.3062 24.2256 43.0054 24.5264C42.7046 24.82 42.4647 25.1387 42.2857 25.4824C42.1067 25.819 41.9778 26.1735 41.899 26.5459C41.8274 26.9111 41.7916 27.2728 41.7916 27.6309C41.7916 27.9961 41.8274 28.3649 41.899 28.7373C41.9778 29.1097 42.1067 29.4678 42.2857 29.8115C42.4647 30.1481 42.7046 30.4632 43.0054 30.7568C43.3062 31.0505 43.6786 31.3083 44.1226 31.5303C44.5666 31.7451 45.093 31.917 45.7017 32.0459C46.3104 32.1676 47.0158 32.2285 47.8179 32.2285C49.0139 32.2285 49.9986 32.0924 50.772 31.8203C51.5455 31.5482 52.1542 31.1937 52.5982 30.7568C53.0494 30.32 53.3609 29.8294 53.5328 29.2852C53.7118 28.7337 53.8013 28.1823 53.8013 27.6309ZM79.9796 27.6094C79.9796 28.5547 79.8758 29.3962 79.6681 30.1338C79.4604 30.8643 79.1668 31.5016 78.7872 32.0459C78.4148 32.5902 77.9637 33.0521 77.4337 33.4316C76.9109 33.8112 76.3273 34.1156 75.6827 34.3447C75.0382 34.5739 74.3435 34.7422 73.5988 34.8496C72.854 34.9499 72.0769 35 71.2677 35H61.9005V20.2402H71.2462C72.0555 20.2402 72.8325 20.2939 73.5773 20.4014C74.3221 20.5016 75.0167 20.6663 75.6613 20.8955C76.3129 21.1247 76.9038 21.429 77.4337 21.8086C77.9637 22.181 78.4148 22.6429 78.7872 23.1943C79.1668 23.7386 79.4604 24.376 79.6681 25.1064C79.8758 25.8369 79.9796 26.6712 79.9796 27.6094ZM75.962 27.6094C75.962 26.9004 75.8689 26.2845 75.6827 25.7617C75.5037 25.2389 75.2101 24.8092 74.8019 24.4727C74.4008 24.1289 73.8745 23.8747 73.2228 23.71C72.5711 23.5381 71.7762 23.4521 70.838 23.4521H65.8859V31.7881H70.838C71.7762 31.7881 72.5711 31.7057 73.2228 31.541C73.8745 31.3691 74.4008 31.1113 74.8019 30.7676C75.2101 30.4167 75.5037 29.9798 75.6827 29.457C75.8689 28.9342 75.962 28.3184 75.962 27.6094ZM84.0612 35V20.2402H99.0036V23.3877H88.154V25.8262H98.445V28.9736H88.154V31.8525H99.154V35H84.0612Z" fill="white"/>
</svg>
